<?xml version="1.0" encoding="utf-8"?>
<!-- Generator: Adobe Illustrator 16.0.0, SVG Export Plug-In . SVG Version: 6.00 Build 0)  -->
<!DOCTYPE svg PUBLIC "-//W3C//DTD SVG 1.1//EN" "http://www.w3.org/Graphics/SVG/1.1/DTD/svg11.dtd">
<svg version="1.1" id="Capa_1" xmlns="http://www.w3.org/2000/svg" xmlns:xlink="http://www.w3.org/1999/xlink" x="0px" y="0px"
	 width="166.647px" height="52px" viewBox="0 0 166.647 52" enable-background="new 0 0 166.647 52" xml:space="preserve">
<g>
	<defs>
		<rect id="SVGID_1_" x="0.648" y="-0.109" width="166" height="51.721"/>
	</defs>
	<clipPath id="SVGID_2_">
		<use xlink:href="#SVGID_1_"  overflow="visible"/>
	</clipPath>
	<path clip-path="url(#SVGID_2_)" fill="#FAFAFD" d="M10.569,39.05l-3.184,1.923c-0.921,0.557-2.125,0.262-2.683-0.656L3.47,38.285
		c-0.557-0.918-0.261-2.12,0.659-2.676l3.344-2.021l-3.512-1.927c-0.029-0.017-0.054-0.03-0.083-0.047
		c-1.622-0.996-3.18-2.418-3.229-4.459c-0.056-2.288,1.867-4.093,3.513-5.415c0.032-0.026,0.061-0.048,0.095-0.072l3.695-2.612
		l-3.851-2.086c-0.473-0.256-0.789-0.645-0.941-1.16c-0.153-0.516-0.1-1.013,0.158-1.484l1.139-2.084
		c0.513-0.94,1.698-1.291,2.642-0.782l3.302,1.779l-0.248-4.451c-0.005-0.076-0.005-0.14-0.001-0.215
		c0.097-1.772,0.623-3.577,2.147-4.647c2.125-1.493,4.959-0.71,7.137,0.223c0.053,0.023,0.097,0.044,0.148,0.072l3.352,1.784V1.839
		c0-1.073,0.877-1.948,1.953-1.948h2.38c1.075,0,1.953,0.875,1.953,1.948V6.18l3.846-1.883c0.031-0.016,0.058-0.028,0.091-0.042
		c2.086-0.892,4.717-1.523,6.762-0.174c1.584,1.044,2.165,2.851,2.264,4.659c0.003,0.054,0.004,0.1,0.003,0.153l-0.109,4.464
		l3.408-1.852c0.944-0.514,2.134-0.165,2.649,0.777l1.139,2.085c0.515,0.942,0.164,2.13-0.78,2.643l-3.838,2.088l3.989,2.831
		c0.033,0.024,0.061,0.045,0.093,0.07c1.642,1.32,3.531,3.118,3.472,5.399c-0.054,2.057-1.626,3.488-3.26,4.491
		c-0.041,0.024-0.077,0.045-0.119,0.067l-3.641,1.897l3.404,2.057c0.92,0.556,1.216,1.758,0.659,2.676l-1.232,2.031
		c-0.557,0.918-1.762,1.214-2.682,0.657l-3.394-2.05l-0.071,3.802c0,0.032-0.001,0.061-0.003,0.094
		c-0.129,1.901-0.741,3.86-2.53,4.828c-2.124,1.149-4.741,0.227-6.74-0.75c-0.024-0.012-0.043-0.021-0.066-0.034l-3.083-1.653
		l0.005,4.148c0,1.074-0.877,1.949-1.953,1.949h-2.38c-0.539,0-1.002-0.19-1.383-0.571c-0.38-0.38-0.571-0.843-0.57-1.38
		l0.008-4.177l-3.136,1.652c-0.052,0.027-0.097,0.048-0.151,0.071c-2.073,0.875-4.76,1.72-6.873,0.509
		c-1.737-0.997-2.333-2.916-2.46-4.797c-0.003-0.048-0.004-0.089-0.004-0.138L10.569,39.05z M21.853,13.701L17.5,11.319l0.371,4.859
		c0.644,0.033,1.285,0.207,1.875,0.528c2.205,1.199,2.928,3.97,1.738,6.147c-1.19,2.18-3.916,3.074-6.121,1.875
		c-0.512-0.278-0.951-0.648-1.304-1.085L9.618,26.68c0.054,0.024,0.103,0.045,0.144,0.063c0.033,0.014,0.061,0.027,0.092,0.043
		l3.778,1.907c0.353-0.535,0.824-0.998,1.398-1.346c2.146-1.296,4.913-0.523,6.199,1.596c1.283,2.115,0.685,4.929-1.456,6.222
		c-0.59,0.356-1.241,0.561-1.901,0.616l-0.132,4.086c0,0.01,0,0.017-0.001,0.025c-0.005,0.115-0.014,0.28-0.022,0.469l4.403-2.487
		c-0.248-0.554-0.384-1.161-0.384-1.793c0-2.507,2.092-4.466,4.579-4.466s4.579,1.959,4.579,4.466c0,0.629-0.135,1.233-0.381,1.784
		l4.301,2.412c-0.003-0.104-0.007-0.196-0.009-0.271c0-0.012,0-0.023,0-0.035l-0.043-3.896c-0.629-0.065-1.247-0.268-1.811-0.607
		c-2.141-1.293-2.74-4.107-1.456-6.222c1.286-2.119,4.054-2.892,6.2-1.595c0.551,0.334,1.009,0.773,1.356,1.284l3.672-1.872
		c0.035-0.018,0.064-0.031,0.099-0.047c0.093-0.041,0.228-0.101,0.38-0.171l-4.655-3.175c-0.356,0.441-0.8,0.818-1.317,1.099
		c-2.205,1.199-4.931,0.304-6.122-1.875c-1.19-2.178-0.466-4.949,1.739-6.147c0.585-0.318,1.218-0.491,1.856-0.527l0.343-4.824
		l-4.715,2.367c0.212,0.517,0.327,1.077,0.327,1.659c0,2.505-2.092,4.465-4.579,4.465c-2.487,0-4.58-1.96-4.58-4.465
		C21.5,14.816,21.625,14.234,21.853,13.701"/>
	<path clip-path="url(#SVGID_2_)" fill="#4E8846" d="M26.079,17.938c-1.45,0-2.626-1.128-2.626-2.518
		c0-0.979,0.584-1.828,1.436-2.244V13.14l-7.671-4.197c-1.427-0.604-1.986-0.219-1.736,1.593l0.613,8.035l0.054,0.03
		c0.774-0.548,1.801-0.653,2.663-0.185c1.223,0.666,1.652,2.235,0.958,3.506c-0.694,1.271-2.249,1.761-3.472,1.096
		c-0.862-0.469-1.33-1.386-1.288-2.333l-0.043-0.023l-7.498,5.125c-1.203,0.975-1.491,1.417,1.504,2.738l5.804,2.929l0.084-0.05
		c-0.085-0.944,0.34-1.881,1.18-2.389c1.192-0.721,2.767-0.301,3.518,0.938c0.752,1.238,0.395,2.825-0.797,3.545
		c-0.84,0.508-1.87,0.449-2.668-0.064l-0.101,0.062l-0.205,6.309c-0.15,3.299,0.095,3.98,2.782,2.313l6.563-3.707l-0.008-0.086
		c-0.852-0.416-1.436-1.265-1.436-2.245c0-1.39,1.175-2.516,2.626-2.516c1.451,0,2.626,1.126,2.626,2.516
		c0,0.98-0.583,1.829-1.436,2.245v0.088l6.829,3.831c2.128,1.266,2.531,1.395,2.424-2.295l-0.068-6.178l-0.059-0.035
		c-0.798,0.513-1.828,0.57-2.668,0.063c-1.192-0.72-1.549-2.307-0.797-3.545c0.751-1.237,2.326-1.657,3.518-0.938
		c0.839,0.508,1.265,1.445,1.18,2.389l0.018,0.013l5.73-2.92c2.995-1.321,2.825-1.952,1.623-2.927l-7.591-5.179l-0.06,0.033
		c0.041,0.946-0.426,1.864-1.288,2.333c-1.224,0.665-2.778,0.174-3.473-1.097c-0.694-1.27-0.264-2.839,0.959-3.505
		c0.862-0.469,1.889-0.363,2.662,0.185l0.047-0.025l0.532-7.483c0.25-1.812-0.22-2.688-1.648-2.085l-8.106,4.071v0.057
		c0.853,0.416,1.437,1.266,1.437,2.244C28.706,16.81,27.53,17.938,26.079,17.938 M12.534,35.585l-6.161,3.722l-1.232-2.03
		l6.237-3.769l-6.476-3.553c-3.618-2.221-2.598-4.219,0.485-6.695l6.254-4.422l-6.608-3.579l1.138-2.084l6.376,3.435L12.103,8.68
		c0.204-3.737,2.466-4.495,6.562-2.74l6.224,3.313V1.839h2.38v7.467l6.66-3.26c3.637-1.556,6.102-0.937,6.307,2.8l-0.191,7.837
		l6.377-3.468l1.139,2.084l-6.581,3.579l6.534,4.638c3.083,2.477,4.031,4.494,0.414,6.714l-6.714,3.5l6.37,3.847l-1.233,2.032
		l-6.294-3.803l-0.134,7.184c-0.286,4.228-2.988,4.156-6.462,2.459l-5.963-3.198l0.007,7.411h-2.38l0.015-7.415l-6.007,3.163
		c-3.632,1.533-6.338,1.607-6.623-2.624L12.534,35.585z"/>
	<path clip-path="url(#SVGID_2_)" fill="#FAFAFD" d="M161.657,39.541c0.177-0.176,0.42-0.285,0.689-0.285h1.041
		c0.099,0,0.192,0.016,0.281,0.042c0.18-0.064,0.367-0.104,0.559-0.12c0.135-0.01,0.27-0.015,0.406-0.015h0.147
		c0.537,0,0.976,0.437,0.976,0.974v1.049c0,0.295-0.117,0.55-0.344,0.741c-0.227,0.192-0.497,0.268-0.789,0.22
		c-0.049-0.008-0.098-0.014-0.148-0.014c-0.012,0-0.028,0-0.047,0.001v1.981c0,0.537-0.438,0.974-0.977,0.974h-1.105
		c-0.095,0-0.187-0.013-0.272-0.038c-0.086,0.025-0.177,0.038-0.272,0.038h-1.033c-0.115,0-0.227-0.019-0.33-0.055
		c-0.326,0.095-0.668,0.132-1.006,0.132c-0.433,0-0.856-0.075-1.237-0.26c-0.161,0.115-0.358,0.183-0.57,0.183h-1.106
		c-0.094,0-0.186-0.013-0.272-0.038c-0.086,0.025-0.177,0.038-0.271,0.038h-1.107c-0.089,0-0.175-0.012-0.258-0.034
		c-0.082,0.022-0.168,0.034-0.258,0.034h-1.106c-0.095,0-0.187-0.013-0.272-0.038c-0.086,0.025-0.176,0.038-0.271,0.038h-1.089
		c-0.266,0-0.506-0.105-0.682-0.278c-0.178,0.173-0.418,0.278-0.684,0.278h-1.107c-0.26,0-0.498-0.102-0.672-0.269
		c-0.177,0.167-0.414,0.269-0.674,0.269h-1.107c-0.094,0-0.186-0.013-0.271-0.038c-0.087,0.025-0.177,0.038-0.271,0.038h-1.033
		c-0.116,0-0.227-0.019-0.331-0.055c-0.326,0.095-0.667,0.132-1.006,0.132c-0.578,0-1.144-0.134-1.61-0.487
		c-0.507-0.384-0.77-0.943-0.77-1.577c0-0.073,0.004-0.146,0.009-0.219h-1.153v1.232c0,0.537-0.439,0.974-0.976,0.974h-1.19
		c-0.537,0-0.977-0.437-0.977-0.974v-5.239c0-0.536,0.439-0.974,0.977-0.974h4.04c0.537,0,0.976,0.438,0.976,0.974v0.46
		c0.4-0.137,0.836-0.182,1.256-0.182c0.572,0,1.152,0.099,1.644,0.387c0.177-0.176,0.421-0.285,0.688-0.285h1.043
		c0.105,0,0.207,0.018,0.304,0.049c0.295-0.105,0.606-0.15,0.923-0.15c0.398,0,0.801,0.067,1.152,0.264
		c0.003,0.002,0.007,0.003,0.011,0.005c0.335-0.18,0.724-0.269,1.144-0.269c0.317,0,0.631,0.053,0.93,0.167
		c0.025,0.009,0.05,0.019,0.074,0.03v-0.543c0-0.537,0.439-0.975,0.978-0.975h1.106c0.095,0,0.187,0.013,0.273,0.039
		c0.077-0.02,0.159-0.031,0.242-0.031h1.107c0.088,0,0.175,0.012,0.257,0.034c0.09-0.026,0.186-0.042,0.286-0.042h1.106
		c0.538,0,0.976,0.438,0.976,0.975v0.586c0.441-0.183,0.938-0.24,1.412-0.24C160.586,39.154,161.166,39.253,161.657,39.541
		 M130.869,39.645c0.179-0.235,0.461-0.389,0.779-0.389h1.06c0.12,0,0.235,0.022,0.342,0.062c0.321-0.118,0.666-0.164,1.01-0.164
		c0.295,0,0.589,0.042,0.869,0.137c0.283,0.095,0.543,0.241,0.769,0.438c0.235,0.207,0.414,0.461,0.54,0.748
		c0.13,0.3,0.188,0.62,0.188,0.946v2.692c0,0.537-0.439,0.974-0.977,0.974h-1.107c-0.326,0-0.615-0.161-0.793-0.407
		c-0.178,0.246-0.467,0.407-0.793,0.407h-1.106c-0.319,0-0.604-0.153-0.782-0.391c-0.184,0.118-0.381,0.213-0.588,0.29
		c-0.393,0.142-0.805,0.204-1.221,0.204c-0.426,0-0.851-0.062-1.25-0.212c-0.196-0.071-0.383-0.162-0.559-0.271
		c-0.179,0.23-0.46,0.38-0.773,0.38h-1.107c-0.279,0-0.534-0.119-0.712-0.309c-0.185,0.106-0.38,0.192-0.584,0.258
		c-0.326,0.104-0.666,0.154-1.009,0.154c-0.387,0-0.768-0.06-1.131-0.195c-0.185-0.069-0.359-0.157-0.522-0.263
		c-0.179,0.217-0.451,0.354-0.753,0.354h-1.033c-0.117,0-0.229-0.019-0.332-0.055c-0.326,0.095-0.667,0.132-1.006,0.132
		c-0.577,0-1.141-0.134-1.607-0.486c-0.004,0.004-0.008,0.006-0.013,0.01c-0.562,0.384-1.231,0.52-1.903,0.52
		c-0.348,0-0.695-0.041-1.033-0.132c-0.238-0.064-0.471-0.152-0.688-0.269c-0.176,0.174-0.419,0.28-0.685,0.28h-1.107
		c-0.325,0-0.616-0.161-0.793-0.407c-0.178,0.246-0.468,0.407-0.793,0.407h-1.106c-0.289,0-0.551-0.126-0.729-0.327
		c-0.487,0.299-1.04,0.431-1.612,0.431c-0.97,0-1.736-0.283-2.262-0.806c-0.222,0.238-0.486,0.428-0.783,0.566
		c-0.361,0.166-0.75,0.239-1.146,0.239c-0.09,0-0.178-0.005-0.266-0.013v0.775c0,0.537-0.438,0.975-0.976,0.975h-1.106
		c-0.539,0-0.977-0.438-0.977-0.975v-0.866h-0.654c-0.267,0-0.508-0.105-0.684-0.278c-0.176,0.173-0.418,0.278-0.684,0.278h-1.106
		c-0.261,0-0.497-0.102-0.673-0.269c-0.176,0.167-0.412,0.269-0.674,0.269h-1.106c-0.319,0-0.603-0.153-0.78-0.391
		c-0.185,0.118-0.382,0.214-0.59,0.29c-0.391,0.142-0.805,0.204-1.221,0.204c-0.426,0-0.85-0.062-1.249-0.212
		c-0.38-0.141-0.728-0.349-1.019-0.631c-0.026-0.025-0.053-0.053-0.078-0.08c-0.074,0.077-0.152,0.15-0.234,0.221
		c-0.305,0.26-0.655,0.452-1.034,0.583c-0.396,0.137-0.81,0.194-1.228,0.194c-0.467,0-0.928-0.073-1.367-0.232
		c-0.445-0.162-0.842-0.409-1.18-0.739c-0.35-0.341-0.604-0.751-0.778-1.205c-0.187-0.487-0.261-1.01-0.261-1.53
		c0-0.514,0.067-1.025,0.236-1.511c0.157-0.458,0.395-0.879,0.721-1.237c0.33-0.36,0.731-0.633,1.186-0.814
		c0.465-0.188,0.961-0.268,1.462-0.268c0.437,0,0.872,0.061,1.285,0.205c0.378,0.131,0.731,0.318,1.04,0.573
		c0.301,0.249,0.548,0.55,0.732,0.893c0.028,0.056,0.057,0.111,0.082,0.168c0.142-0.08,0.291-0.147,0.443-0.204
		c0.396-0.148,0.816-0.211,1.24-0.211c0.419,0,0.836,0.06,1.23,0.204c0.205,0.075,0.399,0.17,0.582,0.286
		c0.178-0.235,0.461-0.389,0.778-0.389h1.042c0.107,0,0.209,0.018,0.305,0.049c0.295-0.105,0.607-0.15,0.922-0.15
		c0.399,0,0.801,0.067,1.152,0.263c0.004,0.002,0.008,0.004,0.012,0.006c0.336-0.18,0.724-0.269,1.143-0.269
		c0.318,0,0.633,0.053,0.931,0.167c0.138,0.052,0.269,0.116,0.394,0.189c0.174-0.157,0.404-0.255,0.658-0.255h1.078
		c0.092,0,0.182,0.014,0.266,0.037c0.291-0.101,0.603-0.139,0.912-0.139c0.43,0,0.852,0.081,1.236,0.273
		c0.289,0.144,0.545,0.333,0.762,0.565c0.002-0.003,0.006-0.006,0.008-0.009c0.589-0.601,1.378-0.83,2.203-0.83
		c0.681,0,1.238,0.158,1.677,0.439c0.18-0.206,0.444-0.338,0.739-0.338h1.06c0.121,0,0.235,0.022,0.341,0.062
		c0.322-0.118,0.667-0.164,1.012-0.164c0.295,0,0.588,0.042,0.869,0.137c0.282,0.095,0.543,0.241,0.768,0.438
		c0.027,0.024,0.054,0.049,0.08,0.073c0.017-0.015,0.035-0.03,0.052-0.044c0.258-0.214,0.558-0.365,0.876-0.47
		c0.354-0.117,0.73-0.159,1.104-0.159c0.325,0,0.65,0.041,0.965,0.132c0.307,0.089,0.599,0.224,0.858,0.411
		c0.076,0.057,0.149,0.115,0.218,0.178c0.034-0.033,0.071-0.067,0.109-0.1c0.55-0.47,1.297-0.596,1.999-0.596
		c0.713,0,1.437,0.152,1.987,0.634c0.046,0.04,0.09,0.083,0.132,0.126c0.004-0.004,0.008-0.007,0.012-0.011
		c0.282-0.269,0.619-0.46,0.989-0.581c0.359-0.118,0.736-0.168,1.113-0.168c0.447,0,0.887,0.067,1.291,0.23v-0.576
		c0-0.537,0.438-0.975,0.977-0.975h1.107c0.537,0,0.976,0.438,0.976,0.975v0.674c0.026-0.078,0.062-0.154,0.108-0.228l0.359-0.562
		c0.186-0.289,0.481-0.45,0.824-0.45h0.968c0.398,0,0.737,0.222,0.896,0.585c0.099,0.227,0.108,0.467,0.036,0.688
		C130.722,39.555,130.796,39.598,130.869,39.645 M86.47,41.453c-0.227-0.123-0.398-0.335-0.472-0.602
		c-0.019-0.066-0.042-0.123-0.098-0.164c-0.06-0.045-0.112-0.062-0.187-0.062c-0.052,0-0.117,0.005-0.164,0.029
		c-0.051,0.026-0.09,0.06-0.125,0.105c-0.058,0.076-0.097,0.169-0.123,0.261c-0.045,0.152-0.059,0.315-0.059,0.475
		c0,0.156,0.016,0.314,0.059,0.466c0.026,0.092,0.065,0.19,0.123,0.269c0.034,0.046,0.072,0.08,0.123,0.108
		c0.027,0.017,0.07,0.019,0.102,0.019c0.053,0,0.185-0.006,0.23-0.043c0.061-0.049,0.096-0.163,0.112-0.234
		C86.06,41.803,86.235,41.581,86.47,41.453 M77.046,39.477c0.455-0.228,0.971-0.322,1.502-0.322c2.021,0,2.951,1.391,2.951,3.292
		c0,0.125-0.023,0.243-0.066,0.354c0.026,0.153,0.016,0.313-0.037,0.473c-0.192,0.594-0.549,1.087-1.071,1.433
		c-0.511,0.337-1.093,0.486-1.702,0.486c-0.719,0-1.326-0.157-1.807-0.45c-0.18,0.212-0.448,0.347-0.747,0.347h-1.07
		c-0.103,0-0.202-0.016-0.296-0.045c-0.273,0.099-0.57,0.148-0.885,0.148c-0.426,0-0.846-0.078-1.23-0.266
		c-0.354-0.172-0.661-0.415-0.906-0.724c-0.23-0.292-0.399-0.622-0.508-0.979c-0.108-0.352-0.158-0.718-0.158-1.086
		c0-0.378,0.05-0.753,0.167-1.112c0.115-0.355,0.289-0.685,0.533-0.968c0.243-0.285,0.54-0.508,0.88-0.666
		c0.359-0.166,0.746-0.238,1.139-0.238c0.085,0,0.169,0.004,0.251,0.011v-0.349c0-0.536,0.438-0.975,0.977-0.975h1.106
		c0.538,0,0.978,0.438,0.978,0.975V39.477z M65.837,45.023c-0.032,0.13-0.074,0.256-0.127,0.379
		c-0.134,0.311-0.324,0.59-0.571,0.822c-0.245,0.231-0.533,0.406-0.848,0.526c-0.321,0.121-0.657,0.179-1,0.179
		c-0.732,0-1.457-0.183-1.98-0.722c-0.293-0.301-0.48-0.658-0.584-1.043c-0.029,0.001-0.059,0.001-0.087,0.001
		c-0.578,0-1.143-0.134-1.61-0.487c-0.074-0.057-0.143-0.116-0.206-0.18c-0.303,0.255-0.649,0.445-1.023,0.574
		c-0.396,0.137-0.811,0.194-1.228,0.194c-0.468,0-0.928-0.073-1.368-0.232c-0.445-0.162-0.842-0.409-1.18-0.739
		c-0.348-0.341-0.604-0.751-0.778-1.205c-0.187-0.487-0.261-1.01-0.261-1.53c0-0.514,0.069-1.025,0.236-1.511
		c0.158-0.457,0.396-0.879,0.722-1.237c0.329-0.36,0.731-0.633,1.185-0.814c0.466-0.188,0.962-0.268,1.462-0.268
		c0.437,0,0.872,0.061,1.285,0.205c0.378,0.131,0.731,0.318,1.04,0.573c0.301,0.249,0.549,0.55,0.732,0.893
		c0.009,0.018,0.019,0.036,0.028,0.053c0.473-0.229,1.021-0.3,1.545-0.3c0.569,0,1.144,0.097,1.633,0.381v-0.727
		c0-0.537,0.438-0.975,0.976-0.975h1.107c0.538,0,0.976,0.438,0.976,0.975v0.602c0.45-0.195,0.96-0.256,1.449-0.256
		c0.713,0,1.437,0.152,1.986,0.634c0.551,0.483,0.78,1.154,0.78,1.874v2.453c0,0.537-0.439,0.974-0.977,0.974h-1.033
		c-0.116,0-0.227-0.019-0.331-0.055c-0.326,0.095-0.667,0.132-1.006,0.132C66.457,45.166,66.137,45.124,65.837,45.023
		 M57.356,41.453c-0.227-0.123-0.399-0.335-0.471-0.604c-0.018-0.065-0.042-0.121-0.099-0.162c-0.059-0.045-0.111-0.062-0.185-0.062
		c-0.053,0-0.117,0.005-0.165,0.029c-0.051,0.026-0.09,0.06-0.125,0.105c-0.058,0.076-0.097,0.169-0.123,0.261
		c-0.044,0.152-0.059,0.315-0.059,0.475c0,0.156,0.015,0.314,0.059,0.466c0.026,0.092,0.065,0.19,0.123,0.269
		c0.034,0.046,0.072,0.08,0.123,0.108c0.028,0.017,0.071,0.019,0.102,0.019c0.053,0,0.184-0.006,0.23-0.043
		c0.06-0.049,0.095-0.163,0.112-0.234C56.945,41.803,57.122,41.581,57.356,41.453 M90.505,41.972
		c-0.012,0.068-0.015,0.157-0.015,0.201c0,0.046,0.003,0.14,0.017,0.21h0.021h0.021c0.014-0.07,0.017-0.164,0.017-0.21
		c0-0.044-0.003-0.133-0.015-0.201c-0.009,0-0.017,0-0.023,0C90.521,41.972,90.513,41.972,90.505,41.972 M129.033,41.972
		c-0.013,0.068-0.015,0.157-0.015,0.201c0,0.046,0.002,0.14,0.016,0.209c0.008,0.001,0.016,0.001,0.023,0.001h0.021
		c0.014-0.07,0.016-0.164,0.016-0.21c0-0.044-0.002-0.133-0.015-0.201c-0.009,0-0.017,0-0.022,0
		C129.05,41.972,129.042,41.972,129.033,41.972"/>
	<path clip-path="url(#SVGID_2_)" fill="#2D3872" d="M57.827,40.597c-0.079-0.295-0.233-0.527-0.461-0.694
		c-0.227-0.168-0.482-0.251-0.765-0.251c-0.228,0-0.431,0.046-0.609,0.136c-0.178,0.092-0.33,0.218-0.456,0.383
		c-0.126,0.165-0.222,0.359-0.287,0.582c-0.064,0.224-0.096,0.472-0.096,0.744c0,0.267,0.032,0.511,0.096,0.735
		c0.065,0.224,0.158,0.415,0.277,0.577c0.12,0.162,0.264,0.289,0.434,0.382c0.169,0.095,0.361,0.142,0.576,0.142
		c0.351,0,0.634-0.088,0.849-0.265c0.215-0.176,0.363-0.429,0.442-0.758h1.191c-0.062,0.301-0.162,0.572-0.3,0.813
		c-0.138,0.242-0.311,0.449-0.517,0.626c-0.206,0.175-0.445,0.31-0.719,0.402c-0.274,0.097-0.577,0.143-0.909,0.143
		c-0.369,0-0.713-0.058-1.033-0.175c-0.32-0.115-0.597-0.289-0.832-0.52c-0.235-0.23-0.418-0.515-0.548-0.855
		c-0.131-0.342-0.197-0.736-0.197-1.185c0-0.442,0.062-0.841,0.183-1.192c0.121-0.353,0.296-0.651,0.521-0.899
		c0.226-0.246,0.503-0.435,0.827-0.566c0.326-0.131,0.692-0.195,1.098-0.195c0.356,0,0.678,0.05,0.964,0.148
		c0.285,0.101,0.531,0.235,0.737,0.405s0.371,0.371,0.494,0.601c0.123,0.23,0.2,0.476,0.231,0.736H57.827z M61.904,42.216
		c-0.111,0.085-0.305,0.153-0.582,0.204c-0.38,0.068-0.639,0.148-0.774,0.242c-0.136,0.095-0.203,0.224-0.203,0.388
		c0,0.29,0.166,0.435,0.498,0.435c0.141,0,0.278-0.018,0.41-0.055s0.248-0.092,0.346-0.166c0.099-0.074,0.177-0.168,0.235-0.282
		c0.059-0.112,0.088-0.243,0.088-0.391c0-0.046-0.001-0.108-0.004-0.188C61.914,42.324,61.91,42.261,61.904,42.216 M61.221,40.129
		c0.597,0,1.044,0.13,1.342,0.391c0.298,0.262,0.448,0.643,0.448,1.143v2.453h-1.034c-0.012-0.046-0.025-0.094-0.037-0.145
		c-0.012-0.051-0.021-0.107-0.027-0.171c-0.135,0.131-0.311,0.229-0.526,0.294c-0.215,0.066-0.464,0.098-0.747,0.098
		c-0.424,0-0.764-0.096-1.019-0.289c-0.255-0.193-0.383-0.46-0.383-0.801c0-0.267,0.048-0.48,0.143-0.639
		c0.095-0.159,0.229-0.284,0.401-0.375c0.172-0.092,0.377-0.159,0.613-0.204c0.237-0.046,0.494-0.086,0.771-0.12
		c0.221-0.028,0.395-0.074,0.521-0.136c0.126-0.063,0.189-0.151,0.189-0.265c0-0.147-0.074-0.258-0.222-0.332
		c-0.147-0.073-0.31-0.11-0.488-0.11c-0.197,0-0.362,0.053-0.494,0.157c-0.132,0.105-0.211,0.246-0.235,0.422h-1.061
		c0.038-0.432,0.197-0.769,0.48-1.01C60.139,40.249,60.594,40.129,61.221,40.129 M64.937,44.38c0,0.233-0.041,0.446-0.124,0.639
		c-0.083,0.193-0.197,0.359-0.345,0.498c-0.147,0.14-0.323,0.247-0.524,0.324c-0.203,0.076-0.419,0.115-0.653,0.115
		c-0.577,0-1.003-0.143-1.279-0.427c-0.275-0.283-0.414-0.685-0.414-1.201h1.043c0,0.217,0.044,0.39,0.133,0.52
		c0.089,0.131,0.242,0.196,0.457,0.196c0.221,0,0.376-0.065,0.466-0.196c0.089-0.13,0.133-0.3,0.133-0.511V40.23h1.107V44.38z
		 M64.937,39.771H63.83v-0.963h1.107V39.771z M68.045,42.216c-0.111,0.085-0.305,0.153-0.582,0.204
		c-0.38,0.068-0.639,0.148-0.774,0.242c-0.135,0.095-0.203,0.224-0.203,0.388c0,0.29,0.166,0.435,0.498,0.435
		c0.141,0,0.278-0.018,0.41-0.055c0.132-0.037,0.248-0.092,0.346-0.166c0.099-0.074,0.177-0.168,0.236-0.282
		c0.058-0.112,0.087-0.243,0.087-0.391c0-0.046-0.001-0.108-0.004-0.188C68.056,42.324,68.051,42.261,68.045,42.216 M67.362,40.129
		c0.597,0,1.044,0.13,1.342,0.391c0.299,0.262,0.448,0.643,0.448,1.143v2.453h-1.034c-0.012-0.046-0.024-0.094-0.036-0.145
		c-0.013-0.051-0.022-0.107-0.028-0.171c-0.135,0.131-0.311,0.229-0.526,0.294c-0.215,0.066-0.464,0.098-0.747,0.098
		c-0.424,0-0.764-0.096-1.019-0.289c-0.255-0.193-0.383-0.46-0.383-0.801c0-0.267,0.048-0.48,0.143-0.639
		c0.096-0.159,0.229-0.284,0.401-0.375c0.173-0.092,0.377-0.159,0.613-0.204c0.238-0.046,0.494-0.086,0.771-0.12
		c0.221-0.028,0.395-0.074,0.521-0.136c0.126-0.063,0.189-0.151,0.189-0.265c0-0.147-0.074-0.258-0.221-0.332
		c-0.148-0.073-0.311-0.11-0.489-0.11c-0.197,0-0.362,0.053-0.493,0.157c-0.133,0.105-0.211,0.246-0.236,0.422h-1.06
		c0.037-0.432,0.196-0.769,0.479-1.01C66.28,40.249,66.735,40.129,67.362,40.129 M74.075,41.006c-0.633,0-0.949,0.4-0.949,1.201
		c0,0.347,0.086,0.627,0.258,0.839c0.172,0.213,0.4,0.319,0.684,0.319c0.135,0,0.261-0.026,0.377-0.08
		c0.117-0.055,0.219-0.131,0.305-0.23c0.086-0.099,0.152-0.216,0.199-0.349c0.045-0.134,0.068-0.28,0.068-0.439
		C75.017,41.426,74.703,41.006,74.075,41.006 M76.069,44.115h-1.071l-0.019-0.477c-0.252,0.386-0.64,0.579-1.162,0.579
		c-0.308,0-0.574-0.056-0.803-0.167c-0.227-0.11-0.417-0.261-0.567-0.451c-0.151-0.189-0.264-0.41-0.341-0.66
		s-0.116-0.517-0.116-0.801c0-0.295,0.04-0.566,0.12-0.814c0.081-0.246,0.196-0.457,0.346-0.634
		c0.151-0.176,0.334-0.313,0.549-0.413s0.458-0.148,0.729-0.148c0.51,0,0.918,0.204,1.227,0.613v-1.926h1.107V44.115z
		 M79.379,41.798c-0.013-0.289-0.103-0.504-0.272-0.644c-0.17-0.139-0.365-0.207-0.586-0.207c-0.228,0-0.42,0.072-0.58,0.221
		c-0.16,0.147-0.252,0.357-0.277,0.63H79.379z M77.626,42.445c0.018,0.287,0.111,0.519,0.277,0.693
		c0.166,0.174,0.388,0.261,0.664,0.261c0.178,0,0.338-0.038,0.479-0.116c0.142-0.077,0.233-0.182,0.276-0.31h1.144
		c-0.129,0.397-0.356,0.704-0.683,0.92c-0.325,0.216-0.713,0.324-1.162,0.324c-1.402,0-2.104-0.705-2.104-2.113
		c0-0.602,0.176-1.082,0.526-1.439s0.853-0.536,1.504-0.536c1.315,0,1.974,0.771,1.974,2.316H77.626z M86.942,40.597
		c-0.082-0.295-0.234-0.527-0.463-0.694c-0.227-0.168-0.482-0.251-0.765-0.251c-0.228,0-0.431,0.046-0.608,0.136
		c-0.179,0.092-0.332,0.218-0.457,0.383c-0.127,0.165-0.222,0.359-0.287,0.582c-0.063,0.224-0.096,0.472-0.096,0.744
		c0,0.267,0.032,0.511,0.096,0.735c0.065,0.224,0.158,0.415,0.277,0.577c0.12,0.162,0.264,0.289,0.434,0.382
		c0.168,0.095,0.361,0.142,0.576,0.142c0.351,0,0.633-0.088,0.849-0.265c0.216-0.176,0.362-0.429,0.444-0.758h1.188
		c-0.062,0.301-0.161,0.572-0.3,0.813c-0.139,0.242-0.311,0.449-0.516,0.626c-0.207,0.175-0.447,0.31-0.72,0.402
		c-0.274,0.097-0.577,0.143-0.909,0.143c-0.369,0-0.714-0.058-1.033-0.175c-0.319-0.115-0.597-0.289-0.832-0.52
		c-0.234-0.23-0.418-0.515-0.549-0.855c-0.129-0.342-0.195-0.736-0.195-1.185c0-0.442,0.061-0.841,0.183-1.192
		c0.121-0.353,0.296-0.651,0.521-0.899c0.227-0.246,0.502-0.435,0.828-0.566c0.324-0.131,0.691-0.195,1.097-0.195
		c0.356,0,0.678,0.05,0.964,0.148c0.286,0.101,0.531,0.235,0.738,0.405c0.205,0.17,0.371,0.371,0.492,0.601
		c0.125,0.23,0.201,0.476,0.231,0.736H86.942z M90.528,40.998c-0.676,0-1.015,0.392-1.015,1.175c0,0.79,0.339,1.184,1.015,1.184
		c0.677,0,1.015-0.394,1.015-1.184C91.543,41.39,91.205,40.998,90.528,40.998 M90.528,40.129c0.332,0,0.631,0.048,0.895,0.145
		c0.264,0.096,0.489,0.234,0.673,0.413c0.185,0.179,0.326,0.395,0.425,0.647c0.098,0.253,0.147,0.531,0.147,0.839
		c0,0.307-0.05,0.587-0.151,0.839c-0.102,0.253-0.244,0.469-0.43,0.648c-0.184,0.179-0.409,0.316-0.673,0.412
		c-0.265,0.098-0.56,0.146-0.886,0.146c-0.338,0-0.642-0.05-0.908-0.149c-0.268-0.1-0.494-0.238-0.678-0.418
		c-0.186-0.178-0.326-0.394-0.426-0.646c-0.098-0.253-0.146-0.53-0.146-0.831c0-0.308,0.051-0.585,0.152-0.834
		c0.102-0.25,0.244-0.465,0.428-0.645c0.186-0.179,0.412-0.317,0.679-0.417C89.897,40.178,90.196,40.129,90.528,40.129
		 M94.162,40.802c0.141-0.256,0.312-0.433,0.512-0.528c0.199-0.097,0.438-0.145,0.714-0.145c0.284,0,0.51,0.046,0.678,0.14
		c0.17,0.095,0.334,0.254,0.494,0.482c0.221-0.415,0.6-0.622,1.135-0.622c0.209,0,0.402,0.033,0.58,0.102
		c0.18,0.068,0.332,0.16,0.457,0.277c0.127,0.116,0.226,0.254,0.295,0.413c0.071,0.159,0.106,0.327,0.106,0.503v2.691h-1.088v-2.352
		c0-0.238-0.06-0.43-0.181-0.575c-0.119-0.144-0.277-0.217-0.475-0.217c-0.203,0-0.371,0.078-0.507,0.234
		c-0.136,0.155-0.203,0.354-0.203,0.592v2.317h-1.106v-2.334c0-0.312-0.051-0.521-0.152-0.627c-0.102-0.104-0.271-0.156-0.512-0.156
		c-0.455,0-0.684,0.252-0.684,0.758v2.359H93.12V40.23h1.042V40.802z M101.655,41.006c-0.618,0-0.928,0.422-0.928,1.265
		c0,0.331,0.088,0.601,0.262,0.808c0.175,0.209,0.399,0.313,0.675,0.313c0.276,0,0.501-0.11,0.679-0.33
		c0.178-0.219,0.268-0.502,0.268-0.85C102.61,41.408,102.291,41.006,101.655,41.006 M100.756,40.23v0.485
		c0.11-0.204,0.26-0.353,0.45-0.447c0.189-0.094,0.432-0.14,0.727-0.14c0.307,0,0.572,0.056,0.801,0.17
		c0.227,0.113,0.416,0.267,0.569,0.46c0.154,0.192,0.267,0.415,0.341,0.665c0.072,0.25,0.109,0.511,0.109,0.783
		c0,0.295-0.038,0.564-0.115,0.81c-0.076,0.244-0.188,0.456-0.335,0.634c-0.147,0.18-0.327,0.318-0.543,0.418
		c-0.215,0.1-0.459,0.149-0.735,0.149c-0.258,0-0.498-0.045-0.722-0.135c-0.224-0.091-0.397-0.238-0.521-0.447v2.32h-1.106V40.23
		H100.756z M106.972,41.798c-0.013-0.289-0.104-0.504-0.273-0.644c-0.168-0.139-0.363-0.207-0.584-0.207
		c-0.229,0-0.422,0.072-0.582,0.221c-0.159,0.147-0.252,0.357-0.276,0.63H106.972z M105.219,42.445
		c0.019,0.287,0.111,0.519,0.277,0.693c0.166,0.174,0.387,0.261,0.663,0.261c0.179,0,0.339-0.038,0.48-0.116
		c0.141-0.077,0.233-0.182,0.276-0.31h1.144c-0.129,0.397-0.356,0.704-0.683,0.92s-0.713,0.324-1.162,0.324
		c-1.401,0-2.103-0.705-2.103-2.113c0-0.602,0.176-1.082,0.525-1.439s0.852-0.536,1.503-0.536c1.316,0,1.974,0.771,1.974,2.316
		H105.219z M109.618,40.802c0.129-0.216,0.301-0.382,0.519-0.499c0.218-0.116,0.496-0.174,0.832-0.174
		c0.203,0,0.388,0.027,0.556,0.085c0.168,0.057,0.314,0.139,0.438,0.247c0.123,0.107,0.218,0.242,0.289,0.404
		c0.07,0.161,0.105,0.349,0.105,0.559v2.691h-1.106v-2.352c0-0.301-0.054-0.504-0.161-0.609c-0.107-0.104-0.294-0.156-0.559-0.156
		c-0.577,0-0.866,0.298-0.866,0.894v2.224h-1.107V40.23h1.062V40.802z M115.409,41.406c-0.055-0.341-0.305-0.512-0.746-0.512
		c-0.18,0-0.334,0.036-0.467,0.107c-0.133,0.07-0.198,0.163-0.198,0.277c0,0.152,0.228,0.271,0.683,0.356
		c0.664,0.137,1.088,0.245,1.272,0.324c0.448,0.205,0.674,0.508,0.674,0.911c0,0.443-0.171,0.781-0.513,1.015
		c-0.34,0.231-0.791,0.349-1.351,0.349c-0.276,0-0.536-0.033-0.78-0.098c-0.242-0.064-0.453-0.158-0.631-0.277
		c-0.179-0.119-0.32-0.263-0.424-0.43c-0.105-0.168-0.16-0.354-0.167-0.559h1.144c0,0.182,0.078,0.326,0.231,0.431
		s0.359,0.158,0.618,0.158c0.208,0,0.389-0.039,0.539-0.115c0.15-0.077,0.227-0.175,0.227-0.295c0-0.068-0.056-0.136-0.166-0.204
		c-0.111-0.068-0.281-0.125-0.508-0.17c-0.658-0.143-1.076-0.253-1.255-0.333c-0.448-0.192-0.673-0.499-0.673-0.919
		c0-0.171,0.037-0.335,0.111-0.495c0.072-0.159,0.184-0.299,0.332-0.421c0.146-0.122,0.332-0.221,0.558-0.294
		c0.224-0.074,0.489-0.111,0.798-0.111c0.245,0,0.477,0.031,0.691,0.095c0.216,0.062,0.4,0.149,0.558,0.264
		c0.157,0.113,0.283,0.251,0.379,0.413c0.095,0.161,0.147,0.34,0.161,0.532H115.409z M119.55,42.216
		c-0.111,0.085-0.304,0.153-0.581,0.204c-0.381,0.068-0.64,0.148-0.774,0.242c-0.135,0.095-0.203,0.224-0.203,0.388
		c0,0.29,0.166,0.435,0.498,0.435c0.142,0,0.277-0.018,0.41-0.055s0.248-0.092,0.347-0.166c0.098-0.074,0.176-0.168,0.235-0.282
		c0.058-0.112,0.088-0.243,0.088-0.391c0-0.046-0.002-0.108-0.006-0.188C119.562,42.324,119.556,42.261,119.55,42.216
		 M118.866,40.129c0.598,0,1.045,0.13,1.344,0.391c0.298,0.262,0.447,0.643,0.447,1.143v2.453h-1.033
		c-0.014-0.046-0.025-0.094-0.037-0.145c-0.014-0.051-0.021-0.107-0.027-0.171c-0.136,0.131-0.311,0.229-0.527,0.294
		c-0.215,0.066-0.463,0.098-0.746,0.098c-0.424,0-0.764-0.096-1.02-0.289c-0.255-0.193-0.383-0.46-0.383-0.801
		c0-0.267,0.048-0.48,0.143-0.639c0.096-0.159,0.229-0.284,0.401-0.375c0.173-0.092,0.377-0.159,0.614-0.204
		c0.236-0.046,0.492-0.086,0.77-0.12c0.221-0.028,0.396-0.074,0.521-0.136c0.126-0.063,0.189-0.151,0.189-0.265
		c0-0.147-0.074-0.258-0.222-0.332c-0.147-0.073-0.31-0.11-0.489-0.11c-0.195,0-0.361,0.053-0.492,0.157
		c-0.133,0.105-0.211,0.246-0.236,0.422h-1.061c0.037-0.432,0.197-0.769,0.479-1.01S118.239,40.129,118.866,40.129 M123.884,41.619
		c-0.031-0.198-0.118-0.354-0.263-0.469c-0.144-0.113-0.321-0.17-0.53-0.17c-0.117,0-0.229,0.019-0.332,0.055
		c-0.105,0.037-0.195,0.1-0.271,0.188c-0.078,0.087-0.14,0.204-0.185,0.349c-0.047,0.146-0.069,0.322-0.069,0.532
		c0,0.427,0.082,0.741,0.248,0.945c0.166,0.205,0.357,0.307,0.572,0.307s0.399-0.055,0.555-0.166
		c0.152-0.109,0.242-0.271,0.267-0.48h1.116c-0.031,0.227-0.101,0.433-0.209,0.618c-0.106,0.184-0.246,0.343-0.418,0.477
		c-0.172,0.133-0.369,0.235-0.592,0.306c-0.221,0.071-0.457,0.107-0.709,0.107c-0.289,0-0.551-0.044-0.785-0.133
		c-0.234-0.087-0.438-0.218-0.612-0.392c-0.175-0.173-0.308-0.39-0.4-0.651c-0.093-0.261-0.14-0.565-0.14-0.911
		c0-0.348,0.048-0.646,0.145-0.899c0.096-0.253,0.229-0.46,0.4-0.622c0.17-0.162,0.378-0.281,0.621-0.361
		c0.244-0.079,0.513-0.119,0.809-0.119c0.559,0,1.006,0.133,1.342,0.4c0.334,0.267,0.521,0.629,0.558,1.09H123.884z M126.476,44.115
		h-1.107V40.23h1.107V44.115z M126.476,39.771h-1.107v-0.963h1.107V39.771z M129.057,40.998c-0.677,0-1.015,0.392-1.015,1.175
		c0,0.79,0.338,1.184,1.015,1.184s1.015-0.394,1.015-1.184C130.071,41.39,129.733,40.998,129.057,40.998 M129.057,40.129
		c0.332,0,0.63,0.048,0.894,0.145c0.266,0.096,0.49,0.234,0.675,0.413s0.325,0.395,0.424,0.647s0.147,0.531,0.147,0.839
		c0,0.307-0.051,0.587-0.151,0.839c-0.103,0.253-0.245,0.469-0.429,0.648c-0.186,0.179-0.409,0.316-0.674,0.412
		c-0.265,0.098-0.56,0.146-0.886,0.146c-0.339,0-0.641-0.05-0.909-0.149c-0.267-0.1-0.492-0.238-0.678-0.418
		c-0.184-0.178-0.326-0.394-0.424-0.646c-0.1-0.253-0.146-0.53-0.146-0.831c0-0.308,0.049-0.585,0.15-0.834
		c0.102-0.25,0.245-0.465,0.43-0.645c0.185-0.179,0.41-0.317,0.678-0.417S128.726,40.129,129.057,40.129 M129.187,39.779h-0.804
		l0.36-0.562h0.969L129.187,39.779z M132.708,40.802c0.13-0.216,0.302-0.382,0.52-0.499c0.217-0.116,0.495-0.174,0.832-0.174
		c0.203,0,0.387,0.027,0.557,0.085c0.168,0.057,0.313,0.139,0.437,0.247c0.123,0.107,0.218,0.242,0.289,0.404
		c0.071,0.161,0.106,0.349,0.106,0.559v2.691h-1.107v-2.352c0-0.301-0.054-0.504-0.161-0.609c-0.108-0.104-0.294-0.156-0.558-0.156
		c-0.578,0-0.868,0.298-0.868,0.894v2.224h-1.106V40.23h1.061V40.802z M142.125,39.797h-2.851v1.184h2.49v0.928h-2.49v2.207h-1.189
		v-5.239h4.04V39.797z M145.039,42.216c-0.111,0.085-0.306,0.153-0.582,0.204c-0.382,0.068-0.64,0.148-0.774,0.242
		c-0.136,0.095-0.203,0.224-0.203,0.388c0,0.29,0.166,0.435,0.498,0.435c0.143,0,0.278-0.018,0.411-0.055
		c0.132-0.037,0.247-0.092,0.345-0.166c0.1-0.074,0.178-0.168,0.236-0.282c0.059-0.112,0.087-0.243,0.087-0.391
		c0-0.046-0.001-0.108-0.004-0.188C145.049,42.324,145.045,42.261,145.039,42.216 M144.356,40.129c0.597,0,1.043,0.13,1.342,0.391
		c0.298,0.262,0.447,0.643,0.447,1.143v2.453h-1.033c-0.012-0.046-0.024-0.094-0.037-0.145c-0.012-0.051-0.021-0.107-0.027-0.171
		c-0.135,0.131-0.311,0.229-0.525,0.294c-0.216,0.066-0.465,0.098-0.748,0.098c-0.424,0-0.764-0.096-1.019-0.289
		s-0.383-0.46-0.383-0.801c0-0.267,0.048-0.48,0.143-0.639c0.095-0.159,0.229-0.284,0.401-0.375
		c0.172-0.092,0.377-0.159,0.613-0.204c0.236-0.046,0.494-0.086,0.771-0.12c0.222-0.028,0.396-0.074,0.521-0.136
		c0.127-0.063,0.189-0.151,0.189-0.265c0-0.147-0.074-0.258-0.221-0.332c-0.148-0.073-0.311-0.11-0.489-0.11
		c-0.196,0-0.36,0.053-0.493,0.157c-0.133,0.105-0.211,0.246-0.236,0.422h-1.061c0.037-0.432,0.197-0.769,0.48-1.01
		S143.729,40.129,144.356,40.129 M147.731,40.802c0.141-0.256,0.312-0.433,0.512-0.528c0.199-0.097,0.438-0.145,0.715-0.145
		c0.283,0,0.508,0.046,0.678,0.14c0.169,0.095,0.333,0.254,0.493,0.482c0.222-0.415,0.601-0.622,1.135-0.622
		c0.209,0,0.402,0.033,0.581,0.102c0.178,0.068,0.33,0.16,0.456,0.277c0.127,0.116,0.226,0.254,0.295,0.413
		c0.071,0.159,0.106,0.327,0.106,0.503v2.691h-1.088v-2.352c0-0.238-0.061-0.43-0.18-0.575c-0.121-0.144-0.279-0.217-0.476-0.217
		c-0.202,0-0.371,0.078-0.507,0.234c-0.135,0.155-0.203,0.354-0.203,0.592v2.317h-1.107v-2.334c0-0.312-0.05-0.521-0.152-0.627
		c-0.101-0.104-0.271-0.156-0.512-0.156c-0.455,0-0.682,0.252-0.682,0.758v2.359h-1.107V40.23h1.043V40.802z M154.353,44.115h-1.106
		V40.23h1.106V44.115z M154.353,39.771h-1.106v-0.963h1.106V39.771z M155.976,44.115h-1.107v-5.299h1.107V44.115z M157.625,44.115
		h-1.106V40.23h1.106V44.115z M157.625,39.771h-1.106v-0.963h1.106V39.771z M160.696,42.216c-0.111,0.085-0.306,0.153-0.582,0.204
		c-0.381,0.068-0.64,0.148-0.774,0.242c-0.135,0.095-0.203,0.224-0.203,0.388c0,0.29,0.166,0.435,0.498,0.435
		c0.142,0,0.278-0.018,0.411-0.055c0.132-0.037,0.247-0.092,0.345-0.166c0.099-0.074,0.177-0.168,0.236-0.282
		c0.058-0.112,0.087-0.243,0.087-0.391c0-0.046-0.001-0.108-0.004-0.188C160.706,42.324,160.702,42.261,160.696,42.216
		 M160.013,40.129c0.598,0,1.044,0.13,1.342,0.391c0.299,0.262,0.448,0.643,0.448,1.143v2.453h-1.034
		c-0.012-0.046-0.023-0.094-0.035-0.145c-0.014-0.051-0.022-0.107-0.028-0.171c-0.136,0.131-0.31,0.229-0.526,0.294
		c-0.215,0.066-0.464,0.098-0.747,0.098c-0.424,0-0.764-0.096-1.019-0.289c-0.256-0.193-0.383-0.46-0.383-0.801
		c0-0.267,0.048-0.48,0.143-0.639c0.096-0.159,0.229-0.284,0.4-0.375c0.173-0.092,0.377-0.159,0.615-0.204
		c0.235-0.046,0.492-0.086,0.77-0.12c0.221-0.028,0.395-0.074,0.521-0.136c0.125-0.063,0.188-0.151,0.188-0.265
		c0-0.147-0.074-0.258-0.222-0.332c-0.147-0.073-0.311-0.11-0.488-0.11c-0.197,0-0.361,0.053-0.493,0.157
		c-0.133,0.105-0.211,0.246-0.235,0.422h-1.061c0.036-0.432,0.195-0.769,0.479-1.01S159.386,40.129,160.013,40.129 M164.78,41.185
		c-0.104-0.017-0.205-0.026-0.303-0.026c-0.684,0-1.024,0.313-1.024,0.938v2.019h-1.107V40.23h1.042v0.469
		c0.092-0.131,0.188-0.232,0.286-0.307s0.2-0.131,0.306-0.171c0.104-0.039,0.211-0.063,0.321-0.072
		c0.111-0.009,0.222-0.013,0.332-0.013h0.147V41.185z"/>
	<path clip-path="url(#SVGID_2_)" fill="#FAFAFD" d="M137.016,20.177v-2.14c0-1.073,0.877-1.948,1.953-1.948h4.459
		c0.455,0,0.875,0.157,1.208,0.419c0.064-0.031,0.13-0.062,0.197-0.091c1.209-0.528,2.529-0.725,3.842-0.725
		c1.279,0,2.623,0.172,3.777,0.752c0.418,0.209,0.807,0.464,1.171,0.753c1.351-1.054,3.063-1.505,4.917-1.505
		c1.064,0,2.117,0.155,3.125,0.503c0.933,0.323,1.809,0.785,2.568,1.419c0.74,0.62,1.336,1.37,1.762,2.236
		c0.432,0.88,0.652,1.823,0.652,2.804v10.421c0,1.073-0.877,1.949-1.953,1.949h-4.656c-1.075,0-1.952-0.876-1.952-1.949v-9.103
		c0-0.308-0.04-0.674-0.259-0.913c-0.161-0.176-0.356-0.206-0.59-0.206c-0.316,0-0.539,0.075-0.758,0.304
		c-0.257,0.268-0.328,0.581-0.328,0.947v8.971c0,1.073-0.877,1.949-1.953,1.949h-4.734c-1.075,0-1.953-0.876-1.953-1.949V24.04
		c0-0.213-0.014-0.725-0.092-1.007c-0.229-0.065-0.628-0.079-0.795-0.079c-0.854,0-0.967,0.135-0.967,0.987v9.136
		c0,1.073-0.879,1.949-1.953,1.949h-4.735c-1.076,0-1.953-0.876-1.953-1.949v-1.629c-0.688,0.978-1.575,1.797-2.653,2.442
		c-1.819,1.09-3.869,1.531-5.977,1.531c-6.668,0-10.95-3.22-10.95-10.128c0-0.582,0.04-1.153,0.124-1.708
		c-0.076-0.003-0.154-0.005-0.23-0.005c-0.584,0-1.732,0.067-2.148,0.567c-0.234,0.282-0.279,0.763-0.279,1.112v7.816
		c0,1.073-0.877,1.949-1.953,1.949h-4.734c-1.075,0-1.953-0.876-1.953-1.949V22.822h-1.074v10.254c0,1.073-0.878,1.949-1.953,1.949
		h-4.734c-1.076,0-1.953-0.876-1.953-1.949v-3.223c-0.536,1.117-1.275,2.1-2.211,2.922c-1.036,0.909-2.25,1.555-3.557,1.986
		c-1.418,0.468-2.91,0.659-4.401,0.659c-1.526,0-3.06-0.191-4.511-0.679c-1.308-0.44-2.527-1.088-3.566-2
		c-0.91-0.8-1.63-1.752-2.152-2.834c-0.07,0.123-0.145,0.244-0.221,0.364c-0.715,1.132-1.607,2.11-2.669,2.929
		c-1.105,0.852-2.357,1.463-3.687,1.877c-1.446,0.453-2.958,0.64-4.47,0.64c-1.711,0-3.406-0.239-5.032-0.774
		c-1.569-0.517-3.004-1.309-4.241-2.404c-1.255-1.111-2.198-2.474-2.851-4.014c-0.716-1.689-0.996-3.517-0.996-5.344
		c0-1.809,0.264-3.613,0.911-5.31c0.597-1.568,1.483-2.983,2.677-4.168c1.205-1.197,2.653-2.064,4.246-2.643
		c1.719-0.625,3.541-0.876,5.365-0.876c1.59,0,3.19,0.188,4.71,0.667c1.339,0.421,2.616,1.024,3.742,1.866
		c1.057,0.792,1.949,1.757,2.621,2.895c0.654,1.11,1.074,2.314,1.24,3.591c0,0.004,0,0.008,0.002,0.011
		c0.261-0.297,0.543-0.579,0.845-0.844c1.039-0.912,2.258-1.56,3.565-1.999c1.439-0.484,2.957-0.68,4.472-0.68
		c1.503,0,3.011,0.188,4.44,0.659c1.114,0.368,2.16,0.891,3.086,1.601c0.045-1.035,0.904-1.864,1.951-1.864h0.911
		c0.195-0.808,0.526-1.576,1.028-2.274c1.88-2.616,5.346-3.202,8.359-3.202c1.076,0,1.953,0.876,1.953,1.949v3.199
		c0,0.113-0.01,0.224-0.029,0.332c0.045-0.003,0.091-0.004,0.137-0.004h4.459c0.429,0,0.827,0.139,1.15,0.375
		c0.24-0.114,0.485-0.215,0.737-0.302c0.609-0.209,1.239-0.337,1.882-0.382c0.519-0.036,1.037-0.054,1.558-0.054h0.631
		c1.075,0,1.953,0.875,1.953,1.948v0.374c2.085-1.769,4.788-2.355,7.485-2.355C132.429,15.692,135.399,17.309,137.016,20.177
		 M75.282,24.136c0.117-0.896,0.354-1.771,0.73-2.608c0.029-0.066,0.061-0.132,0.092-0.197c-0.174,0.048-0.357,0.073-0.548,0.073
		h-5.09c-0.877,0-1.621-0.553-1.872-1.392c-0.208-0.695-0.581-1.221-1.186-1.625c-0.668-0.445-1.389-0.644-2.19-0.644
		c-0.61,0-1.227,0.091-1.785,0.347c-0.5,0.231-0.924,0.546-1.28,0.967c-0.394,0.467-0.669,1.008-0.854,1.588
		c-0.236,0.738-0.323,1.519-0.323,2.29c0,0.763,0.09,1.528,0.323,2.257c0.183,0.575,0.45,1.126,0.835,1.596
		c0.338,0.412,0.742,0.73,1.219,0.971c0.494,0.247,1.04,0.336,1.589,0.336c0.834,0,1.778-0.129,2.466-0.638
		c0.628-0.466,0.972-1.132,1.171-1.875c0.232-0.864,0.99-1.445,1.887-1.445H75.282z M86.377,22.954
		c-1.884,0-2.388,0.768-2.388,2.603c0,1.84,0.492,2.636,2.388,2.636s2.387-0.796,2.387-2.636
		C88.764,23.722,88.26,22.954,86.377,22.954"/>
	<path clip-path="url(#SVGID_2_)" fill="#2D3872" d="M70.466,19.454c-0.342-1.143-0.999-2.039-1.973-2.688
		c-0.973-0.648-2.064-0.973-3.275-0.973c-0.973,0-1.841,0.176-2.604,0.528c-0.762,0.352-1.413,0.841-1.953,1.479
		c-0.539,0.638-0.947,1.391-1.223,2.254c-0.276,0.869-0.414,1.825-0.414,2.88c0,1.034,0.138,1.979,0.414,2.848
		c0.276,0.863,0.671,1.61,1.184,2.237c0.513,0.627,1.131,1.116,1.854,1.479c0.723,0.363,1.546,0.545,2.466,0.545
		c1.5,0,2.71-0.342,3.63-1.023c0.921-0.682,1.552-1.66,1.894-2.936h5.089c-0.263,1.166-0.689,2.216-1.281,3.15
		c-0.592,0.94-1.329,1.742-2.21,2.424c-0.881,0.676-1.907,1.199-3.077,1.562c-1.171,0.368-2.467,0.55-3.887,0.55
		c-1.578,0-3.051-0.225-4.419-0.676s-2.551-1.121-3.558-2.012c-1.006-0.891-1.788-1.996-2.348-3.315
		c-0.558-1.319-0.841-2.847-0.841-4.584c0-1.715,0.263-3.255,0.783-4.618c0.519-1.363,1.269-2.523,2.229-3.48
		c0.967-0.956,2.15-1.687,3.538-2.193c1.394-0.506,2.959-0.759,4.695-0.759c1.526,0,2.9,0.192,4.124,0.577
		c1.222,0.386,2.275,0.908,3.156,1.567c0.882,0.66,1.585,1.435,2.111,2.325c0.526,0.891,0.854,1.842,0.985,2.853H70.466z
		 M86.376,21.005c-2.893,0-4.34,1.517-4.34,4.552c0,3.056,1.447,4.584,4.34,4.584c2.895,0,4.342-1.528,4.342-4.584
		C90.718,22.522,89.271,21.005,86.376,21.005 M86.376,17.642c1.422,0,2.697,0.186,3.828,0.56s2.092,0.907,2.88,1.601
		c0.789,0.692,1.394,1.527,1.815,2.507c0.421,0.978,0.631,2.061,0.631,3.249c0,1.187-0.217,2.269-0.65,3.248
		c-0.435,0.979-1.046,1.813-1.836,2.507c-0.789,0.691-1.748,1.227-2.88,1.6c-1.131,0.374-2.394,0.561-3.788,0.561
		c-1.447,0-2.742-0.192-3.886-0.577s-2.11-0.923-2.899-1.616s-1.395-1.529-1.815-2.507s-0.632-2.05-0.632-3.215
		c0-1.188,0.218-2.265,0.65-3.233c0.436-0.967,1.047-1.797,1.836-2.49s1.756-1.232,2.899-1.617
		C83.675,17.833,84.956,17.642,86.376,17.642 M106.153,15.761c-1.197,0-1.979,0.165-2.354,0.495
		c-0.375,0.33-0.566,0.924-0.566,1.781h3.039v2.837h-3.039v12.203h-4.735V20.874h-2.644v-2.837h2.644
		c0-3.649,2.552-5.475,7.655-5.475V15.761z M118.63,21.73c-0.447-0.066-0.881-0.099-1.301-0.099c-2.921,0-4.381,1.21-4.381,3.629
		v7.815h-4.734v-15.04h4.459v1.814c0.395-0.505,0.803-0.901,1.223-1.187c0.421-0.286,0.855-0.506,1.303-0.66s0.906-0.247,1.381-0.28
		c0.473-0.033,0.947-0.05,1.42-0.05h0.631V21.73z M131.62,24.105c-0.052-1.121-0.439-1.951-1.163-2.49s-1.56-0.808-2.506-0.808
		c-0.974,0-1.802,0.286-2.485,0.857c-0.685,0.572-1.078,1.386-1.184,2.441H131.62z M124.124,26.612
		c0.079,1.11,0.473,2.006,1.184,2.683c0.709,0.677,1.656,1.012,2.84,1.012c0.764,0,1.447-0.148,2.053-0.451
		c0.605-0.302,1-0.704,1.184-1.198h4.893c-0.553,1.539-1.525,2.727-2.919,3.562c-1.394,0.835-3.052,1.253-4.972,1.253
		c-5.998,0-8.996-2.727-8.996-8.18c0-2.331,0.75-4.188,2.248-5.574c1.5-1.385,3.644-2.077,6.433-2.077
		c5.629,0,8.442,2.99,8.442,8.971H124.124z M143.427,20.246c0.605-0.99,1.336-1.671,2.19-2.045s1.874-0.56,3.058-0.56
		c1.211,0,2.176,0.181,2.9,0.544c0.723,0.363,1.427,0.984,2.111,1.863c0.947-1.605,2.563-2.407,4.853-2.407
		c0.894,0,1.724,0.131,2.486,0.395c0.763,0.265,1.413,0.622,1.952,1.072c0.539,0.451,0.961,0.984,1.264,1.6
		c0.302,0.615,0.454,1.264,0.454,1.946v10.422h-4.656v-9.103c0-0.923-0.257-1.665-0.771-2.226c-0.512-0.561-1.189-0.841-2.031-0.841
		c-0.868,0-1.592,0.302-2.17,0.907c-0.579,0.605-0.868,1.369-0.868,2.292v8.971h-4.735V24.04c0-1.209-0.217-2.017-0.65-2.424
		c-0.434-0.407-1.164-0.61-2.19-0.61c-1.946,0-2.92,0.978-2.92,2.935v9.136h-4.735v-15.04h4.459V20.246z"/>
	<path clip-path="url(#SVGID_2_)" fill="#FAFAFD" d="M53.981,33.817H164.63c1.076,0,1.953,0.875,1.953,1.948v0.861
		c0,1.073-0.877,1.948-1.953,1.948H53.981c-1.076,0-1.953-0.875-1.953-1.948v-0.861C52.028,34.692,52.905,33.817,53.981,33.817"/>
</g>
<g>
	<defs>
		<rect id="SVGID_3_" x="-161.829" y="-195.205" width="1677" height="4082"/>
	</defs>
	<clipPath id="SVGID_4_">
		<use xlink:href="#SVGID_3_"  overflow="visible"/>
	</clipPath>
	<rect x="53.981" y="35.766" clip-path="url(#SVGID_4_)" fill="#4E8846" width="110.648" height="0.861"/>
	
		<line clip-path="url(#SVGID_4_)" fill="none" stroke="#DEA031" stroke-miterlimit="10" x1="-87.829" y1="-13.705" x2="-87.829" y2="-11.205"/>
	
		<line clip-path="url(#SVGID_4_)" fill="none" stroke="#DEA031" stroke-miterlimit="10" stroke-dasharray="4.933,4.933" x1="-87.829" y1="-6.271" x2="-87.829" y2="60.328"/>
	
		<line clip-path="url(#SVGID_4_)" fill="none" stroke="#DEA031" stroke-miterlimit="10" x1="-87.829" y1="62.795" x2="-87.829" y2="65.295"/>
	<rect x="-91.079" y="-14.205" clip-path="url(#SVGID_4_)" fill="#DEA031" width="6.5" height="1"/>
	<rect x="-91.079" y="64.795" clip-path="url(#SVGID_4_)" fill="#DEA031" width="6.5" height="1"/>
	
		<line clip-path="url(#SVGID_4_)" fill="none" stroke="#DEA031" stroke-miterlimit="10" stroke-dasharray="5,5" x1="-80.329" y1="76.295" x2="1.671" y2="76.295"/>
	<rect x="-80.829" y="73.045" clip-path="url(#SVGID_4_)" fill="#DEA031" width="1" height="6.5"/>
	<rect x="1.171" y="73.045" clip-path="url(#SVGID_4_)" fill="#DEA031" width="1" height="6.5"/>
</g>
</svg>
